<svg version="1.0" xmlns="http://www.w3.org/2000/svg"
 width="650.000000pt" height="487.000000pt" viewBox="0 0 650.000000 487.000000"
 preserveAspectRatio="xMidYMid meet">

<g transform="translate(0.555555,487.666666) scale(0.100000,-0.100000)"
fill="#000000" stroke="none">
<path d="M3728 4608 c-69 -9 -198 -66 -229 -102 -12 -14 -25 -23 -29 -21 -4 3
-7 -10 -5 -27 2 -25 7 -32 27 -35 14 -2 31 3 37 11 8 10 21 12 46 6 27 -6 37
-4 44 8 8 14 10 14 25 0 18 -18 22 -33 6 -23 -15 9 -12 -7 5 -29 11 -14 12
-22 4 -27 -6 -4 -8 -12 -4 -19 7 -11 30 -10 110 4 11 2 28 4 38 5 10 0 22 11
27 24 5 12 9 16 9 10 1 -7 8 -13 16 -13 8 0 15 -6 15 -14 0 -8 7 -17 16 -20
10 -4 13 -2 8 7 -4 6 2 4 12 -6 17 -15 17 -19 4 -28 -12 -8 -10 -9 8 -4 12 3
22 2 22 -3 0 -5 10 -8 23 -7 12 1 35 -7 50 -17 22 -16 26 -23 16 -34 -10 -12
-9 -13 5 -8 11 4 22 0 31 -12 16 -22 19 -38 6 -29 -5 3 -12 1 -16 -5 -4 -6
-12 -7 -18 -3 -7 4 -6 -1 2 -11 11 -13 16 -14 22 -4 4 7 11 9 15 5 4 -4 3 -12
-3 -18 -6 -6 -8 -20 -5 -31 5 -20 5 -20 18 3 15 26 16 22 18 -50 1 -39 5 -46
40 -68 21 -14 35 -20 32 -14 -4 6 -3 11 3 11 5 0 11 -3 13 -7 2 -5 19 -16 39
-25 33 -15 36 -20 36 -57 0 -45 6 -43 -122 -46 -115 -3 -206 -28 -219 -61 -3
-9 -12 -14 -21 -10 -10 4 -15 -1 -15 -14 0 -11 -6 -20 -12 -20 -9 0 -8 -4 2
-10 9 -6 10 -10 3 -10 -6 0 -15 -10 -18 -21 -9 -27 -85 -100 -96 -93 -17 10
-33 -44 -34 -113 0 -40 2 -73 5 -73 3 0 4 -17 2 -37 -2 -23 0 -33 5 -26 7 9
16 8 40 -6 24 -15 30 -24 26 -44 -4 -21 2 -30 35 -52 29 -19 38 -31 35 -46 -6
-22 -19 -23 -94 -9 -47 9 -56 8 -69 -7 -11 -14 -29 -18 -75 -18 -33 1 -66 5
-73 9 -7 4 -19 3 -26 -3 -7 -6 -15 -8 -19 -5 -14 14 -67 -33 -91 -80 -23 -46
-27 -80 -11 -105 9 -16 91 -24 114 -12 16 9 21 9 21 -1 0 -9 3 -9 10 2 5 8 10
12 10 8 0 -4 12 -1 26 7 15 7 32 11 39 9 7 -3 16 -1 20 5 8 14 102 14 110 1 4
-6 16 -8 27 -4 14 4 18 2 14 -5 -8 -12 12 -37 29 -36 6 0 16 4 23 9 7 4 16 5
19 2 4 -3 1 -6 -5 -6 -7 0 -12 -9 -12 -21 0 -11 5 -17 10 -14 6 4 8 11 4 16
-3 6 3 5 13 -2 15 -9 25 -9 39 -1 10 6 13 12 6 12 -10 0 -10 3 0 14 7 8 17 11
22 8 5 -3 6 0 2 6 -3 6 0 16 7 24 29 29 50 138 27 138 -5 0 -10 11 -10 25 0
13 -12 45 -26 70 -34 62 -38 85 -13 85 10 0 19 4 19 10 0 5 11 17 25 26 21 14
27 14 45 1 16 -11 18 -16 8 -20 -7 -3 1 -3 18 0 18 3 35 0 38 -6 4 -6 11 -9
16 -6 5 3 27 -6 49 -20 23 -14 50 -25 60 -25 11 0 19 -6 17 -12 -1 -7 -1 -10
1 -5 3 4 11 7 19 7 8 0 14 4 14 8 0 16 33 9 53 -11 15 -15 16 -19 4 -14 -8 3
-21 0 -27 -8 -9 -11 -7 -17 8 -26 24 -15 18 -52 -17 -98 -14 -19 -21 -32 -15
-28 6 3 11 0 11 -8 0 -15 -9 -19 -39 -16 -11 2 -16 -3 -13 -11 3 -8 -6 -31
-20 -52 -27 -40 -33 -62 -12 -50 6 4 2 -4 -11 -18 -12 -13 -19 -28 -15 -33 5
-4 3 -5 -4 -1 -7 4 -14 -3 -19 -16 l-7 -22 -17 22 c-13 15 -20 18 -23 10 -4
-10 -6 -10 -6 0 -1 6 -8 12 -16 12 -9 0 -25 9 -37 20 -20 19 -38 19 -38 -1 0
-5 10 -9 23 -10 21 0 21 -1 2 -9 -30 -13 -32 -12 -38 11 -5 19 -11 21 -39 15
-18 -3 -37 -11 -43 -18 -7 -8 -7 -9 2 -4 6 3 14 0 17 -6 3 -9 8 -8 16 5 17 27
40 21 39 -10 -1 -17 -3 -21 -6 -10 -5 19 -24 24 -21 5 3 -12 -3 -14 -39 -17
-9 0 -13 -4 -10 -8 15 -14 -18 -33 -59 -33 -24 0 -44 -4 -44 -9 0 -11 71 -46
85 -42 6 1 4 -3 -2 -10 -11 -11 -22 -10 -60 4 -50 18 -128 23 -119 9 3 -5 -12
-6 -32 -3 -32 6 -104 -1 -137 -13 -33 -11 -45 -20 -45 -33 0 -8 -4 -12 -9 -9
-4 3 -24 -11 -44 -32 -19 -20 -50 -49 -69 -63 -41 -32 -50 -74 -14 -65 13 3
26 3 30 -1 13 -13 51 -14 61 -1 11 14 36 22 78 22 15 1 27 4 27 9 0 4 11 5 25
2 14 -3 37 -7 51 -10 14 -3 36 -18 49 -33 25 -29 23 -30 40 24 4 14 7 14 26 0
23 -16 53 -11 42 8 -4 6 1 5 10 -2 9 -8 21 -11 26 -8 5 4 9 -2 8 -13 0 -11 -5
-17 -11 -14 -5 4 -7 0 -4 -8 4 -10 -1 -15 -15 -16 -12 -1 -47 -12 -79 -24 -57
-21 -59 -21 -79 -3 -16 15 -24 16 -39 6 -12 -7 -21 -8 -25 -2 -7 12 -35 -13
-35 -31 0 -8 -11 -10 -37 -5 -21 4 -44 8 -50 8 -7 1 -13 5 -13 9 0 4 -9 5 -21
2 -14 -4 -18 -11 -14 -22 19 -47 7 -74 -35 -79 -14 -2 -26 -8 -28 -12 -2 -5
-9 -7 -17 -4 -9 4 -13 -5 -13 -30 0 -20 4 -33 9 -30 5 3 9 -1 9 -9 0 -8 14
-29 32 -47 20 -21 29 -26 24 -14 -9 22 -9 23 -7 47 1 13 10 17 37 17 21 0 33
-4 29 -10 -3 -5 -1 -10 4 -10 6 0 11 4 11 10 0 6 9 6 24 0 13 -5 26 -7 29 -4
5 5 120 26 150 28 9 0 17 3 17 6 0 13 97 30 143 26 76 -7 102 -15 115 -37 17
-27 7 -53 -26 -68 -15 -7 -29 -12 -31 -11 -2 1 -7 -3 -10 -9 -4 -6 -32 -12
-64 -15 -31 -3 -64 -9 -74 -14 -10 -6 -26 -7 -41 -1 -13 5 -28 6 -34 3 -6 -4
-22 -8 -37 -10 -14 -2 -48 -8 -76 -13 -27 -5 -53 -7 -57 -4 -4 2 -16 -1 -27
-7 -15 -7 -23 -6 -35 6 -9 8 -16 12 -16 8 0 -3 -7 -1 -15 6 -8 7 -23 9 -32 6
-15 -6 -16 -5 -5 5 6 7 12 18 12 23 0 6 -5 3 -11 -7 -8 -13 -14 -15 -23 -7
-10 7 -16 6 -25 -3 -13 -16 -32 -108 -24 -120 3 -5 6 -25 8 -45 2 -20 15 -68
30 -107 15 -38 28 -83 29 -100 0 -16 7 -36 14 -44 7 -7 12 -29 10 -47 -1 -18
1 -36 5 -40 4 -4 7 -18 7 -31 0 -12 4 -23 8 -23 13 0 12 -44 -1 -53 -8 -5 -5
-7 8 -5 14 2 20 -3 21 -17 1 -11 3 -22 4 -25 19 -52 52 -447 50 -605 -1 -121
-1 -125 -12 -119 -6 4 -6 -1 0 -13 7 -12 7 -25 1 -34 -5 -7 -9 -9 -9 -4 0 6
-5 3 -11 -5 -8 -12 -9 -12 -7 5 1 11 -1 25 -5 32 -4 6 -3 14 3 18 5 3 10 14 9
23 0 14 -2 13 -10 -3 -7 -15 -8 -10 -5 22 2 23 -1 46 -5 50 -5 5 -11 58 -14
118 -3 59 -8 112 -10 116 -3 4 1 9 9 12 15 6 13 93 -3 153 -5 19 -7 52 -4 72
3 25 2 33 -5 23 -7 -9 -11 0 -16 34 -4 26 -9 54 -11 63 -10 39 -68 209 -81
235 -8 16 -14 37 -14 48 0 11 -7 19 -16 19 -8 0 -12 5 -9 10 6 9 -8 14 -29 11
-4 -1 -19 10 -32 24 -13 14 -24 23 -24 18 0 -4 -7 3 -16 16 -13 18 -14 25 -4
31 7 4 10 15 7 23 -3 8 1 27 9 42 8 15 12 30 9 33 -9 10 -247 -73 -253 -87 -3
-8 -1 -16 6 -19 22 -7 -1 -32 -30 -32 -16 0 -27 -4 -24 -9 3 -5 -1 -11 -8 -14
-10 -4 -13 0 -11 14 3 17 1 18 -18 8 -12 -7 -24 -15 -27 -18 -3 -3 -22 -14
-43 -24 -34 -15 -40 -16 -53 -2 -14 13 -17 13 -30 0 -9 -8 -21 -15 -28 -15 -7
0 -18 -15 -24 -32 -5 -18 -10 -25 -11 -16 -1 14 -10 17 -46 16 -25 -1 -47 -8
-49 -15 -3 -7 -11 -13 -17 -13 -8 0 -7 5 2 17 8 9 -14 -1 -48 -22 -34 -22 -61
-42 -61 -45 2 -17 -3 -31 -9 -27 -5 3 -14 -1 -21 -9 -10 -10 -10 -14 -1 -14 7
0 9 -3 6 -6 -4 -4 -13 -1 -22 6 -12 10 -16 9 -21 -3 -9 -23 -41 -9 -55 26 -7
17 -15 25 -17 19 -2 -7 -13 -17 -24 -23 -15 -8 -19 -8 -14 0 9 14 4 14 -29 1
-16 -6 -23 -14 -19 -22 4 -6 3 -8 -4 -4 -6 3 -13 2 -17 -4 -4 -6 -10 -8 -15
-5 -4 3 -10 -2 -14 -10 -3 -8 -12 -15 -21 -15 -8 0 -15 -6 -15 -13 0 -8 -10
-19 -22 -26 -55 -28 -87 -58 -75 -70 8 -8 7 -11 -6 -11 -11 0 -17 8 -17 23 -1
20 -2 20 -11 5 -5 -10 -19 -18 -29 -18 -11 0 -20 -5 -20 -11 0 -5 -4 -8 -10
-4 -6 4 -6 15 0 31 6 14 10 38 10 53 0 15 11 49 25 75 24 45 24 46 4 46 -27 0
-79 -31 -79 -47 0 -7 -6 -13 -14 -13 -18 0 -80 -106 -71 -120 4 -6 2 -16 -3
-23 -6 -7 -13 -28 -16 -47 -3 -19 -8 -46 -10 -60 -7 -39 -16 -58 -33 -64 -10
-4 -12 -10 -6 -19 5 -6 10 -25 11 -41 1 -17 6 -32 10 -35 9 -7 9 -11 -2 -67
-8 -43 -36 -71 -89 -89 -40 -13 -44 -29 -12 -43 18 -8 24 -9 20 -1 -5 7 -1 8
11 1 11 -5 38 -18 61 -28 63 -28 56 -56 -17 -71 -78 -15 -86 -12 -81 34 1 6
-14 21 -34 33 -19 12 -35 28 -35 35 0 23 -22 29 -37 10 -15 -22 -17 -39 -3
-30 6 3 10 1 10 -4 0 -6 -6 -11 -12 -11 -7 -1 -2 -7 11 -14 14 -8 19 -16 13
-20 -7 -4 -7 -17 -1 -39 11 -40 12 -60 0 -53 -4 3 -6 -5 -4 -18 4 -22 2 -24
-26 -22 -16 1 -39 10 -50 20 -24 22 -52 14 -48 -12 1 -11 15 -34 30 -51 27
-33 35 -61 17 -61 -5 0 -10 -4 -10 -10 0 -5 7 -10 15 -10 9 0 12 -6 9 -15 -4
-8 -1 -15 5 -15 8 0 9 -6 3 -17 -4 -10 -7 -29 -5 -43 2 -14 4 -31 5 -37 1 -7
5 -13 10 -13 5 0 2 -13 -6 -28 l-15 -28 40 -2 c26 -2 39 1 39 10 0 9 3 9 10
-2 6 -10 3 -21 -12 -37 -25 -27 -48 -29 -87 -9 -17 9 -32 11 -42 5 -11 -7 -11
-9 -1 -9 11 0 11 -3 0 -15 -34 -38 -37 -44 -26 -47 7 -3 5 -10 -6 -20 -9 -9
-16 -22 -16 -28 0 -6 -4 -9 -9 -6 -5 3 -16 -5 -25 -19 -17 -25 -17 -25 12 -20
24 4 31 0 40 -21 15 -31 15 -71 2 -79 -5 -3 -10 -15 -10 -25 0 -14 -5 -18 -16
-13 -9 3 -11 9 -6 12 14 9 34 52 28 58 -3 4 -19 -8 -35 -25 -17 -17 -39 -36
-50 -41 -26 -14 -73 -9 -105 12 -14 9 -39 17 -57 17 -26 0 -31 -3 -26 -20 3
-11 1 -22 -3 -25 -4 -3 -6 -14 -3 -24 3 -10 0 -22 -6 -25 -8 -5 -6 -16 4 -36
17 -32 20 -53 5 -30 -8 13 -10 12 -10 -2 0 -10 4 -18 9 -18 4 0 7 -12 5 -26
-6 -58 -90 -54 1165 -54 l1157 0 18 173 c10 94 26 246 36 337 14 134 17 218
13 450 -5 330 -6 305 2 350 4 23 3 30 -3 22 -17 -25 -24 18 -27 173 -3 131 -6
158 -28 215 -39 102 -64 185 -97 320 -33 138 -34 147 -20 185 l10 27 21 -26
c11 -14 18 -30 14 -36 -9 -15 46 -123 88 -170 7 -8 21 -27 30 -42 9 -15 42
-53 72 -85 31 -32 66 -76 77 -98 12 -22 43 -65 70 -95 27 -30 66 -80 86 -110
20 -30 44 -60 52 -66 8 -7 31 -26 50 -43 l35 -30 12 60 c7 34 20 84 28 112 8
28 14 52 12 54 -2 1 -23 5 -47 8 -59 8 -87 25 -40 25 86 -1 110 7 148 46 47
50 151 134 224 182 48 31 71 57 137 157 97 148 113 178 112 219 -3 91 -7 126
-13 126 -4 0 -5 11 -2 23 2 13 6 37 8 53 2 16 11 46 20 66 18 43 20 52 7 44
-5 -4 -11 -2 -13 4 -2 6 -14 12 -26 15 -18 3 -22 0 -18 -10 3 -8 2 -16 -2 -19
-4 -3 -9 5 -9 16 -1 12 -8 25 -15 29 -8 6 -9 9 -2 9 7 0 15 7 18 16 3 8 2 12
-3 9 -5 -3 -12 -1 -16 5 -3 5 -12 10 -18 10 -8 0 -8 -3 2 -9 18 -11 5 -51 -17
-51 -15 0 -15 2 -2 11 9 6 11 12 4 15 -16 7 -4 63 17 78 10 7 16 16 12 19 -3
4 -1 7 5 7 7 0 12 -7 12 -15 0 -8 -4 -15 -10 -15 -5 0 -3 -8 6 -19 10 -11 24
-16 36 -13 18 4 18 6 2 23 -10 11 -12 19 -6 19 7 0 12 5 12 11 0 7 8 18 18 25
16 13 16 14 -3 7 -17 -6 -18 -4 -8 8 8 9 9 20 3 29 -13 20 -12 33 0 25 7 -4 9
3 6 21 -3 15 -2 33 3 38 14 19 20 56 9 62 -5 3 -1 14 11 25 20 19 20 39 -3 68
-8 11 -8 13 1 8 18 -11 22 16 4 31 -14 12 -14 13 2 8 17 -6 19 -1 15 44 -2 29
1 50 7 50 6 0 3 4 -5 10 -13 8 -13 10 0 15 8 3 16 18 17 33 3 44 11 79 22 99
13 25 13 153 0 153 -5 0 -9 16 -7 35 1 19 5 35 9 35 4 0 5 8 2 18 -3 12 1 19
10 19 8 0 12 -7 10 -16 -2 -9 5 -22 17 -29 18 -11 20 -10 17 8 -2 11 -6 23
-10 26 -4 4 -7 18 -7 31 0 14 -6 23 -16 23 -10 0 -14 -6 -10 -15 3 -8 1 -15
-4 -15 -17 0 -11 29 8 39 35 19 21 171 -22 236 -9 13 -16 30 -16 37 0 21 -167
291 -199 322 -17 17 -31 35 -31 41 0 20 -112 119 -198 173 -56 36 -173 83
-250 101 -67 15 -128 18 -194 9z m-205 -113 c-3 -9 -8 -14 -10 -11 -3 3 -2 9
2 15 9 16 15 13 8 -4z m-16 -45 c-1 -11 -5 -20 -9 -20 -3 0 -6 9 -5 20 1 11 5
20 9 20 3 0 6 -9 5 -20z m906 -260 c3 -11 1 -18 -4 -14 -5 3 -9 12 -9 20 0 20
7 17 13 -6z m13 -39 c-4 -5 0 -12 6 -14 8 -4 9 -6 2 -6 -6 -1 -17 6 -24 14
-10 12 -9 15 4 15 10 0 15 -4 12 -9z m-126 -251 c0 -11 -4 -20 -9 -20 -5 0 -7
9 -4 20 3 11 7 20 9 20 2 0 4 -9 4 -20z m-70 -121 c0 -5 6 -9 13 -9 8 0 14 -7
14 -15 0 -8 -4 -15 -8 -15 -4 0 -20 -12 -36 -26 -20 -19 -34 -24 -52 -19 -14
4 -30 7 -36 8 -21 4 -34 31 -22 46 30 36 127 58 127 30z m-172 -224 c-3 -3 -9
2 -12 12 -6 14 -5 15 5 6 7 -7 10 -15 7 -18z m106 -57 c6 -5 2 -8 -11 -8 -13
0 -23 5 -23 10 0 6 -7 10 -15 10 -24 0 -17 18 8 22 13 2 23 -3 26 -12 2 -8 8
-18 15 -22z m-87 10 c-3 -8 -6 -5 -6 6 -1 11 2 17 5 13 3 -3 4 -12 1 -19z
m158 1 c10 -15 -1 -23 -20 -15 -9 3 -13 10 -10 16 8 13 22 13 30 -1z m-2 -60
c9 0 17 -6 17 -12 0 -7 4 -6 10 3 14 23 22 5 10 -22 -7 -14 -18 -25 -26 -26
-48 -5 -69 -3 -72 7 -2 6 -10 11 -17 11 -7 0 -16 7 -19 16 -3 8 -10 13 -15 10
-5 -4 -17 -3 -27 1 -16 6 -16 7 2 13 10 4 42 5 69 4 28 -2 58 -4 68 -5z m127
1 c0 -5 -2 -10 -4 -10 -3 0 -8 5 -11 10 -3 6 -1 10 4 10 6 0 11 -4 11 -10z
m-37 -7 c-7 -2 -19 -2 -25 0 -7 3 -2 5 12 5 14 0 19 -2 13 -5z m37 -21 c0 -5
-7 -9 -15 -9 -8 0 -15 4 -15 9 0 4 7 8 15 8 8 0 15 -4 15 -8z m-490 -364 c0
-3 -9 -4 -20 -1 -16 4 -18 8 -9 20 10 11 14 11 20 1 5 -7 9 -16 9 -20z m-310
12 c0 -5 -4 -10 -10 -10 -5 0 -10 5 -10 10 0 6 5 10 10 10 6 0 10 -4 10 -10z
m466 -270 c19 0 18 -16 -2 -24 -8 -3 -12 -2 -9 4 3 6 -1 13 -9 16 -9 3 -13 11
-9 17 5 8 8 7 11 -1 2 -7 10 -12 18 -12z m-406 0 c0 -5 -4 -10 -10 -10 -5 0
-10 5 -10 10 0 6 5 10 10 10 6 0 10 -4 10 -10z m705 -80 c-3 -4 2 -10 10 -14
8 -3 15 0 15 6 0 6 3 8 6 5 4 -4 1 -14 -6 -22 -7 -9 -13 -29 -12 -45 0 -21 -3
-27 -14 -23 -7 3 -11 9 -8 14 3 5 0 9 -5 9 -6 0 -11 20 -11 45 0 35 3 43 15
39 8 -4 13 -10 10 -14z m115 -124 c0 -3 -4 -8 -10 -11 -5 -3 -10 -1 -10 4 0 6
5 11 10 11 6 0 10 -2 10 -4z m-510 -16 c0 -5 -5 -10 -11 -10 -5 0 -7 5 -4 10
3 6 8 10 11 10 2 0 4 -4 4 -10z m-1203 -725 c4 -4 3 -5 -4 -2 -6 4 -13 2 -15
-5 -3 -8 -6 -6 -10 4 -7 17 15 19 29 3z m335 -199 c-3 -5 -9 -1 -12 10 -4 10
-5 23 -2 28 3 5 9 1 12 -10 4 -10 5 -23 2 -28z m41 -41 c-3 -9 -8 -14 -10 -11
-3 3 -2 9 2 15 9 16 15 13 8 -4z m-13 -45 c-6 -11 -15 -20 -21 -20 -6 0 -6 7
1 20 6 11 15 20 21 20 6 0 6 -7 -1 -20z m27 -52 c-3 -8 -6 -5 -6 6 -1 11 2 17
5 13 3 -3 4 -12 1 -19z m-1120 -10 c-3 -8 -6 -5 -6 6 -1 11 2 17 5 13 3 -3 4
-12 1 -19z m1103 7 c0 -8 -4 -15 -10 -15 -5 0 -10 -7 -10 -15 0 -8 -8 -15 -17
-14 -11 0 -13 3 -5 6 6 2 12 11 12 19 0 8 5 14 11 14 5 0 7 5 4 10 -3 6 -1 10
4 10 6 0 11 -7 11 -15z m30 -25 c0 -5 -5 -10 -11 -10 -5 0 -7 5 -4 10 3 6 8
10 11 10 2 0 4 -4 4 -10z m15 -30 c3 -5 2 -10 -4 -10 -5 0 -13 5 -16 10 -3 6
-2 10 4 10 5 0 13 -4 16 -10z m-18 -36 c-3 -3 -12 -4 -19 -1 -8 3 -5 6 6 6 11
1 17 -2 13 -5z m-140 -56 c-3 -8 -6 -5 -6 6 -1 11 2 17 5 13 3 -3 4 -12 1 -19z
m149 -33 c-9 -9 -16 -13 -16 -8 0 12 22 34 28 28 2 -2 -3 -11 -12 -20z m-1273
-29 c3 -8 -1 -17 -9 -20 -9 -4 -14 1 -14 14 0 23 15 27 23 6z m4 -32 c-3 -3
-2 -17 4 -31 6 -16 6 -22 -2 -18 -7 5 -8 -5 -3 -32 8 -40 9 -78 4 -153 -1 -25
1 -52 4 -61 5 -10 2 -19 -7 -22 -12 -4 -16 11 -21 73 -10 108 -5 233 8 242 13
9 22 10 13 2z m1573 -18 c0 -3 -4 -8 -10 -11 -5 -3 -10 -1 -10 4 0 6 5 11 10
11 6 0 10 -2 10 -4z m-192 -111 c3 -11 0 -15 -7 -10 -6 3 -9 10 -6 15 3 4 0
11 -5 13 -6 3 -5 4 2 3 7 -1 15 -11 16 -21z m-131 -37 c-3 -8 -6 -5 -6 6 -1
11 2 17 5 13 3 -3 4 -12 1 -19z m93 1 c0 -11 -4 -18 -10 -14 -5 3 -7 12 -3 20
7 21 13 19 13 -6z m49 -26 c-14 -17 -31 1 -22 24 4 10 9 11 19 2 11 -9 12 -15
3 -26z m-1475 0 c-3 -15 -7 -29 -9 -32 -8 -7 -33 19 -38 39 -4 16 0 20 23 20
26 0 28 -3 24 -27z m1466 -38 c0 -8 -2 -15 -4 -15 -2 0 -6 7 -10 15 -3 8 -1
15 4 15 6 0 10 -7 10 -15z m-43 -37 c2 -17 0 -19 -7 -8 -5 8 -6 18 -4 22 8 12
10 10 11 -14z m30 -10 c-3 -8 -6 -5 -6 6 -1 11 2 17 5 13 3 -3 4 -12 1 -19z
m56 -10 c-4 -7 -6 -22 -5 -34 2 -11 -5 -27 -15 -35 -16 -13 -17 -12 -5 3 8 9
13 25 12 35 -4 31 0 43 11 43 6 0 7 -5 2 -12z m-1426 -95 c-3 -10 -5 -2 -5 17
0 19 2 27 5 18 2 -10 2 -26 0 -35z m1496 -14 c17 -1 18 -2 5 -6 -10 -2 -18 -9
-18 -14 0 -6 -4 -7 -10 -4 -5 3 -10 16 -9 28 0 12 3 16 6 10 2 -7 14 -14 26
-14z m-86 -11 c-3 -8 -6 -5 -6 6 -1 11 2 17 5 13 3 -3 4 -12 1 -19z m-1723
-10 c-3 -4 -9 -8 -15 -8 -5 0 -9 4 -9 8 0 5 7 9 15 9 8 0 12 -4 9 -9z m338
-38 c-2 -14 0 -20 7 -16 16 10 13 -10 -3 -23 -11 -9 -15 -7 -20 11 -10 37 -7
60 7 55 6 -2 11 -14 9 -27z m1470 -11 c5 -3 3 -9 -4 -11 -9 -4 -14 3 -15 21
-1 14 1 19 4 11 3 -8 10 -18 15 -21z m25 -31 c-3 -8 -6 -5 -6 6 -1 11 2 17 5
13 3 -3 4 -12 1 -19z m-20 -10 c-3 -8 -6 -5 -6 6 -1 11 2 17 5 13 3 -3 4 -12
1 -19z m-1850 -10 c-3 -8 -6 -5 -6 6 -1 11 2 17 5 13 3 -3 4 -12 1 -19z m1830
-15 c-3 -10 -5 -4 -5 12 0 17 2 24 5 18 2 -7 2 -21 0 -30z m138 27 c3 -5 -1
-10 -10 -10 -9 0 -13 5 -10 10 3 6 8 10 10 10 2 0 7 -4 10 -10z m-55 -45 c0
-28 -25 -10 -28 20 -3 26 -2 27 12 12 9 -8 16 -23 16 -32z m60 -19 c0 -2 -7
-7 -16 -10 -8 -3 -12 -2 -9 4 6 10 25 14 25 6z m-33 -98 c-3 -7 -5 -2 -5 12 0
14 2 19 5 13 2 -7 2 -19 0 -25z m5 -70 c-6 -25 -20 -13 -17 14 4 40 6 43 14
23 4 -11 6 -28 3 -37z m-95 10 c-3 -7 -5 -2 -5 12 0 14 2 19 5 13 2 -7 2 -19
0 -25z m57 24 c3 -5 -1 -9 -9 -9 -8 0 -12 4 -9 9 3 4 7 8 9 8 2 0 6 -4 9 -8z
m-1507 -54 c-3 -8 -6 -5 -6 6 -1 11 2 17 5 13 3 -3 4 -12 1 -19z m1463 -172
c0 -3 -4 -8 -10 -11 -5 -3 -10 -1 -10 4 0 6 5 11 10 11 6 0 10 -2 10 -4z m17
-118 c-3 -8 -6 -5 -6 6 -1 11 2 17 5 13 3 -3 4 -12 1 -19z"/>
<path d="M3626 4371 c-17 -19 -17 -20 6 -32 21 -11 22 -11 9 5 -13 15 -13 19
-1 26 8 5 12 11 9 15 -3 3 -14 -4 -23 -14z"/>
<path d="M3563 4350 c2 -8 9 -16 15 -16 7 -1 17 -2 22 -3 6 0 10 -11 10 -23 0
-19 2 -20 10 -8 8 12 10 12 10 1 0 -8 3 -12 6 -8 4 3 -5 20 -19 37 -16 19 -28
26 -33 19 -4 -8 -9 -7 -16 2 -8 11 -9 11 -5 -1z"/>
<path d="M3830 4334 c-10 -11 -8 -14 9 -14 15 0 20 -4 15 -12 -4 -7 -3 -9 1
-5 14 13 14 35 0 41 -8 3 -19 -2 -25 -10z"/>
<path d="M3480 4299 c0 -6 -4 -8 -9 -5 -5 4 -7 -4 -3 -16 3 -14 2 -19 -6 -14
-8 5 -12 -2 -12 -19 0 -17 4 -24 12 -19 6 4 8 3 5 -3 -4 -6 0 -16 8 -23 12
-10 18 -10 30 0 13 11 13 15 3 22 -10 7 -9 11 5 22 17 13 17 15 -7 40 -15 14
-26 21 -26 15z m30 -36 c0 -2 -6 -11 -14 -19 -11 -11 -17 -11 -22 -2 -4 6 -2
14 4 16 7 2 10 8 7 13 -4 5 1 6 9 3 9 -3 16 -8 16 -11z"/>
<path d="M3722 4294 c-16 -17 -7 -34 16 -33 15 1 15 2 -1 6 -14 4 -16 8 -6 19
16 19 8 26 -9 8z"/>
<path d="M3531 4246 c-14 -17 0 -29 24 -20 13 6 14 9 3 16 -9 7 -7 8 10 5 12
-3 22 -1 22 4 0 14 -46 10 -59 -5z"/>
<path d="M3550 4209 c0 -5 5 -7 10 -4 6 3 10 8 10 11 0 2 -4 4 -10 4 -5 0 -10
-5 -10 -11z"/>
<path d="M3455 4145 c-25 -12 -26 -14 -9 -15 12 0 27 7 34 15 15 18 14 18 -25
0z"/>
<path d="M4078 4063 c-10 -2 -18 -9 -18 -15 0 -6 3 -8 7 -5 3 4 11 3 17 -3 8
-6 12 -3 12 11 0 10 0 18 -1 18 0 -1 -8 -3 -17 -6z"/>
<path d="M3427 3813 c-3 -3 -24 -5 -47 -5 -22 0 -40 -3 -40 -9 0 -5 -9 -9 -20
-9 -23 0 -109 -41 -110 -52 0 -9 -27 -44 -57 -73 -13 -12 -23 -27 -23 -34 0
-6 -7 -11 -15 -11 -8 0 -15 -7 -15 -15 0 -8 -4 -15 -10 -15 -5 0 -10 -12 -10
-26 0 -36 20 -26 48 23 20 38 27 42 73 48 28 4 59 15 69 25 14 14 26 16 66 10
66 -11 104 -27 104 -43 0 -11 -18 -14 -80 -13 -44 1 -80 -2 -80 -5 0 -3 -7 -6
-15 -7 -8 -1 -22 -3 -30 -4 -8 -1 -15 -8 -15 -15 0 -8 -13 -28 -30 -46 -16
-17 -41 -53 -55 -79 -24 -44 -24 -47 -7 -52 22 -7 50 1 72 20 22 19 63 6 57
-17 -3 -11 2 -19 15 -22 12 -4 17 -10 13 -17 -6 -9 -2 -9 15 0 l22 12 -18 -26
c-11 -14 -22 -26 -26 -26 -5 0 -8 -5 -8 -12 0 -6 3 -9 6 -5 4 3 13 -1 21 -9
15 -15 30 -7 96 51 9 8 17 12 17 8 0 -5 5 0 11 10 5 9 17 17 25 17 20 0 94 74
128 128 30 48 31 88 4 113 -17 16 -26 45 -10 36 12 -8 7 56 -7 81 -13 25 -75
57 -91 47 -4 -3 -15 1 -23 9 -8 8 -17 12 -20 9z m78 -274 c11 -17 -1 -21 -15
-4 -8 9 -8 15 -2 15 6 0 14 -5 17 -11z m-59 -23 c22 -17 19 -22 -17 -31 -24
-6 -26 -4 -22 19 6 30 12 32 39 12z m-171 -46 c3 -5 2 -10 -4 -10 -5 0 -13 5
-16 10 -3 6 -2 10 4 10 5 0 13 -4 16 -10z m170 -10 c-3 -5 -13 -10 -21 -10 -8
0 -12 5 -9 10 3 6 13 10 21 10 8 0 12 -4 9 -10z"/>
<path d="M3630 3746 c0 -2 7 -7 16 -10 8 -3 12 -2 9 4 -6 10 -25 14 -25 6z"/>
<path d="M3640 3630 c-8 -5 -10 -10 -5 -10 6 0 1 -7 -10 -16 -23 -17 -23 -16
5 -44 12 -12 18 -26 14 -31 -4 -8 -1 -8 12 -1 20 10 25 56 9 81 -4 8 -2 17 6
22 12 7 11 9 -1 9 -8 0 -22 -5 -30 -10z"/>
<path d="M4658 3563 c7 -3 16 -2 19 1 4 3 -2 6 -13 5 -11 0 -14 -3 -6 -6z"/>
<path d="M3710 3410 c0 -5 5 -10 11 -10 5 0 7 5 4 10 -3 6 -8 10 -11 10 -2 0
-4 -4 -4 -10z"/>
<path d="M4670 3398 c0 -29 12 -48 31 -48 10 0 19 -4 19 -10 0 -5 -6 -7 -13
-5 -27 11 -56 -130 -38 -188 6 -18 14 -45 19 -61 7 -25 10 -27 23 -14 8 9 25
18 36 22 20 6 21 4 16 -28 -3 -20 -1 -36 4 -36 5 0 10 19 11 43 3 68 13 117
24 117 5 0 7 -8 5 -17 -3 -10 -8 -36 -11 -58 -6 -39 -6 -39 8 -15 15 26 36
154 36 216 0 31 -4 37 -35 50 -20 8 -52 13 -73 11 -30 -4 -39 0 -49 17 -10 17
-12 18 -13 4z"/>
<path d="M4205 3080 c3 -5 8 -10 11 -10 2 0 4 5 4 10 0 6 -5 10 -11 10 -5 0
-7 -4 -4 -10z"/>
<path d="M4657 3075 c-9 -8 -18 -44 -21 -87 -4 -40 -9 -99 -12 -130 -5 -57 -5
-58 20 -58 22 0 26 4 26 29 0 17 5 33 11 37 7 4 9 25 7 55 -4 36 -2 49 8 49 9
0 11 -10 7 -34 -6 -37 8 -54 26 -32 8 9 8 16 2 20 -7 5 -7 15 0 33 11 31 10
32 -24 35 -20 2 -27 9 -31 34 -4 17 -4 39 0 48 8 20 0 21 -19 1z"/>
<path d="M3630 2894 c-11 -13 -3 -14 63 -13 41 1 79 -1 84 -4 10 -6 40 9 33
17 -3 3 -42 7 -87 10 -64 4 -84 2 -93 -10z"/>
<path d="M4500 2659 c0 -5 5 -7 10 -4 6 3 10 8 10 11 0 2 -4 4 -10 4 -5 0 -10
-5 -10 -11z"/>
<path d="M4553 2368 c3 -18 12 -52 21 -75 13 -35 14 -57 6 -130 -5 -49 -14
-171 -20 -273 -12 -211 -24 -322 -46 -399 -16 -56 -15 -95 7 -366 16 -200 57
-454 125 -770 50 -235 52 -244 59 -295 4 -24 9 -48 11 -52 3 -5 248 -8 545 -8
509 0 540 1 538 18 -4 40 2 62 16 62 12 0 13 4 6 18 -6 10 -7 29 -4 42 4 16 3
21 -5 16 -8 -5 -12 1 -12 15 0 18 2 19 15 9 14 -11 14 -10 5 15 -6 15 -8 30
-5 33 3 3 5 0 5 -8 0 -10 3 -10 15 0 12 10 13 15 4 21 -9 5 -10 12 -3 21 17
22 35 70 24 63 -15 -9 -12 41 3 57 13 13 12 88 -2 88 -3 0 -7 12 -7 26 -2 17
2 24 11 20 10 -3 13 4 13 23 -1 16 2 33 6 39 3 6 0 13 -6 15 -10 4 -10 6 0 6
8 1 10 6 6 14 -5 8 -2 8 9 -2 15 -12 17 -11 19 10 0 13 2 36 3 51 1 16 -4 29
-12 32 -10 4 -12 13 -8 27 4 12 8 27 9 34 1 7 8 20 15 29 9 11 10 16 2 16 -19
0 -12 37 8 43 17 4 18 10 11 41 -7 33 -5 39 10 38 3 0 6 9 7 21 0 12 -1 16 -4
10 -3 -7 -11 -13 -19 -13 -11 0 -13 4 -5 17 6 12 5 26 -6 47 -9 17 -11 31 -5
35 5 3 10 18 10 33 0 15 -4 25 -9 22 -5 -3 -9 -1 -9 5 0 5 6 12 13 14 7 3 4 6
-6 6 -17 1 -17 2 -1 18 11 11 13 18 5 21 -6 2 -8 14 -5 27 3 13 1 32 -4 42 -7
12 -7 25 0 37 8 14 7 21 -3 27 -8 4 -15 19 -16 33 -1 13 -10 39 -19 58 -10 18
-19 35 -19 38 -2 10 -65 105 -65 98 0 -5 -8 0 -18 10 -10 9 -16 24 -14 33 2 9
-1 20 -7 23 -7 5 -8 1 -4 -11 6 -16 5 -17 -13 -3 -27 21 -46 36 -71 60 -25 21
-48 26 -58 10 -3 -5 -14 -2 -25 7 -10 9 -17 20 -14 25 3 4 0 8 -5 8 -6 0 -14
0 -18 0 -5 0 -8 -4 -8 -9 0 -5 -4 -13 -9 -18 -5 -5 -6 -3 -2 5 4 6 2 12 -3 12
-6 0 -11 5 -11 11 0 5 5 7 10 4 6 -3 10 -1 10 5 0 6 -11 16 -25 22 -18 8 -22
14 -14 24 7 9 5 14 -11 19 -11 3 -18 9 -16 13 5 9 -20 33 -27 25 -3 -3 -3 4 0
16 4 15 1 21 -11 21 -11 0 -16 7 -14 18 2 12 -3 17 -19 16 -12 0 -21 4 -20 10
1 5 -7 12 -18 14 -11 2 -24 11 -29 19 -7 13 -10 13 -17 2 -7 -11 -9 -10 -9 4
0 9 -5 17 -11 17 -5 0 -7 -5 -3 -12 4 -6 -14 0 -39 14 -26 15 -47 22 -47 17 0
-5 -11 -2 -25 7 -32 21 -32 34 -1 34 25 0 43 25 23 34 -8 3 -8 5 1 5 7 1 20
-6 29 -14 8 -8 19 -13 24 -9 5 3 -5 19 -22 35 -17 16 -35 26 -40 23 -5 -3 -9
-1 -9 3 0 13 -59 45 -70 38 -6 -3 -10 0 -10 7 0 10 -2 10 -9 0 -10 -16 -21
-18 -30 -4 -13 21 -111 12 -111 -9 0 -5 -7 -9 -15 -9 -8 0 -12 -6 -9 -13 5
-15 -30 -60 -40 -50 -3 3 -6 -2 -6 -12 0 -15 -3 -16 -12 -7 -9 9 -14 7 -24 -6
-12 -16 -12 -15 -11 3 1 11 -2 20 -8 21 -38 4 -65 26 -74 61 -6 21 -11 43 -11
49 0 6 -7 18 -16 25 -15 12 -16 11 -10 -9 7 -22 0 -28 -20 -14 -15 9 -37 52
-41 77 -4 24 -43 105 -60 123 -6 6 -15 21 -18 32 -10 33 -28 23 -22 -12z m152
-249 c-4 -5 -1 -9 4 -9 6 0 11 -7 11 -15 0 -23 -20 -18 -29 8 -10 25 -5 40 10
31 5 -3 7 -10 4 -15z m195 -140 c0 -5 -6 -9 -13 -9 -8 0 -14 6 -14 14 0 8 6
12 14 9 7 -3 13 -9 13 -14z m21 -49 c6 -16 15 -30 21 -30 5 0 6 -4 3 -10 -3
-5 0 -10 8 -10 13 0 29 -21 31 -42 1 -4 7 -13 14 -19 6 -7 12 -19 12 -26 0
-25 43 -138 63 -165 12 -17 22 -49 25 -83 2 -30 7 -53 11 -51 3 2 7 -13 7 -34
2 -29 -3 -40 -15 -43 -11 -3 -9 -5 6 -6 28 -1 42 -46 45 -138 1 -18 6 -29 11
-26 6 3 7 2 4 -4 -3 -5 -22 -9 -41 -8 -26 0 -32 -2 -25 -11 7 -9 5 -14 -8 -17
-10 -3 -6 -4 10 -4 15 1 27 5 27 9 0 4 9 6 20 5 26 -4 48 -44 53 -99 2 -24 2
-33 0 -20 -6 33 -20 27 -15 -8 2 -17 10 -30 18 -30 8 0 14 -7 14 -16 0 -8 6
-22 14 -30 8 -8 12 -23 9 -35 -4 -15 -2 -20 5 -15 11 7 16 -6 27 -69 4 -22 12
-46 18 -54 9 -10 7 -16 -8 -27 -17 -13 -12 -19 16 -16 5 1 5 -17 -1 -53 -1 -5
-6 -1 -11 10 -8 17 -9 17 -4 -5 2 -14 5 -32 6 -40 0 -10 3 -9 10 5 6 15 8 9 4
-20 -7 -56 -23 -114 -24 -90 -1 17 -3 17 -11 5 -7 -11 -10 -4 -10 26 0 50 -10
104 -19 104 -4 0 -5 -16 -3 -36 3 -27 1 -35 -8 -29 -9 5 -10 1 -5 -16 5 -18 4
-20 -4 -9 -16 23 -22 6 -14 -41 6 -39 8 -41 14 -19 6 21 7 22 9 5 2 -15 4 -12
10 10 6 25 8 20 9 -27 0 -31 -3 -60 -9 -63 -5 -3 -10 -14 -9 -23 0 -14 2 -13
9 3 6 14 9 2 8 -42 -1 -49 -4 -60 -16 -56 -10 4 -13 16 -9 42 2 20 1 47 -3 61
-4 14 -8 19 -9 11 -1 -8 -9 -23 -18 -34 -17 -18 -17 -19 0 -32 9 -6 16 -23 16
-36 -2 -24 -2 -24 -6 -1 -3 14 -9 20 -16 15 -17 -11 -31 -10 -39 2 -4 5 -8 -8
-9 -30 -1 -39 -2 -39 -9 -10 -6 22 -8 25 -10 10 -1 -11 -2 -28 -1 -38 1 -9 -2
-17 -7 -17 -14 0 -22 39 -10 46 7 4 7 9 0 13 -6 4 -12 35 -13 69 -1 35 -6 65
-11 68 -12 8 -10 44 3 44 7 0 9 15 5 42 -8 55 -19 64 -14 11 3 -41 -5 -57 -15
-30 -3 6 -6 1 -7 -13 -1 -14 -3 -37 -5 -52 -2 -16 1 -28 6 -28 6 0 7 -4 4 -10
-3 -5 -11 -10 -16 -10 -6 0 -7 4 -4 10 3 5 1 10 -4 10 -6 0 -10 3 -10 8 1 4 0
16 -1 27 -1 15 -3 16 -7 5 -4 -8 -12 -21 -20 -28 -11 -11 -13 -11 -13 0 0 10
-3 10 -9 -2 -6 -8 -7 -18 -5 -22 3 -4 1 -8 -5 -8 -5 0 -12 6 -14 13 -4 7 -6 6
-6 -4 -1 -9 6 -20 15 -23 22 -8 22 -8 27 12 4 15 5 15 6 0 1 -22 -10 -28 -37
-21 -19 5 -22 12 -21 60 1 41 -3 57 -16 67 -10 7 -15 20 -12 32 4 17 5 16 6
-3 0 -13 5 -23 9 -23 9 0 8 73 -2 88 -3 6 -2 13 4 17 5 3 10 12 10 18 0 8 -3
8 -9 -2 -7 -11 -14 74 -13 184 0 35 -15 192 -28 285 -5 36 -12 97 -15 135 -3
39 -7 86 -10 105 -4 29 -3 31 4 10 8 -22 9 -23 12 -5 1 11 2 27 1 37 -1 9 6
19 16 23 12 4 14 3 6 -5 -16 -16 5 -90 26 -90 13 0 13 -2 0 -11 -11 -8 -12
-12 -3 -15 8 -4 10 -16 6 -35 -7 -35 15 -40 35 -9 10 17 10 21 -2 26 -8 3 -17
22 -21 42 -4 23 -9 31 -14 23 -11 -17 -23 44 -15 75 4 14 2 24 -4 24 -6 0 -9
9 -7 19 2 11 -3 22 -10 25 -11 4 -13 -2 -9 -23 4 -17 1 -32 -5 -36 -8 -5 -10
1 -5 21 5 19 4 25 -5 20 -15 -9 -14 7 1 22 13 13 19 92 6 92 -7 0 -3 58 5 67
3 2 8 0 12 -6 3 -6 1 -11 -5 -11 -6 0 -8 -5 -4 -11 15 -25 21 14 6 43 -11 23
-17 27 -24 17 -7 -11 -8 -9 -4 4 3 10 6 23 6 28 0 6 5 7 10 4 6 -3 10 -4 10
-1 0 2 3 12 6 20 5 12 2 15 -10 10 -11 -4 -16 -1 -16 11 0 10 5 13 12 9 7 -4
8 -3 4 4 -4 6 -2 22 5 34 7 12 12 35 11 50 -1 37 16 36 29 -2z m-335 -236 c-6
-15 -4 -15 10 -3 15 13 17 11 12 -19 -4 -26 -1 -32 14 -32 13 0 18 -8 18 -30
0 -16 -4 -30 -10 -30 -13 0 -13 -47 1 -52 10 -3 17 -26 18 -61 1 -10 5 -16 9
-13 4 2 9 -7 10 -22 1 -21 0 -24 -8 -12 -11 16 -13 -23 -12 -185 1 -155 5
-210 13 -189 9 22 11 19 13 -17 0 -14 7 -33 14 -42 15 -17 7 -41 -9 -31 -6 3
-5 -3 2 -15 8 -12 16 -16 20 -10 4 6 7 -1 7 -15 0 -15 -5 -29 -11 -33 -7 -4
-8 0 -3 12 6 16 4 16 -10 4 -10 -8 -12 -15 -5 -17 6 -2 11 -22 11 -45 0 -22 3
-37 6 -34 4 4 17 -15 30 -41 l23 -47 1 39 c0 54 9 40 11 -18 1 -26 6 -49 10
-52 13 -8 20 32 10 58 -5 14 -9 45 -9 69 1 35 5 45 18 45 14 0 19 -16 28 -76
15 -99 14 -142 -1 -133 -7 3 -4 -3 6 -14 17 -20 24 -48 8 -39 -4 3 -7 -12 -5
-34 2 -32 -1 -40 -14 -40 -15 -1 -15 -2 1 -11 19 -11 15 -47 -7 -61 -7 -5 -3
-8 9 -8 11 0 15 -4 10 -8 -16 -12 -37 -57 -38 -86 -1 -14 -6 -26 -12 -26 -5 0
-5 -4 2 -8 6 -4 14 -29 18 -57 5 -36 4 -46 -4 -35 -8 12 -11 6 -11 -24 0 -59
-26 -29 -35 41 -4 30 -13 74 -22 97 -8 22 -15 59 -14 81 0 22 -4 44 -8 50 -5
5 -12 30 -16 55 -4 25 -15 79 -26 120 -10 42 -16 85 -13 96 3 12 -1 28 -10 37
-9 8 -16 31 -16 50 0 45 -9 69 -23 60 -6 -3 -7 -1 -3 6 4 6 12 8 18 5 8 -5 9
-1 5 10 -4 10 -7 23 -8 29 0 7 -4 3 -9 -8 -8 -18 -9 -17 -9 8 -1 15 -6 27 -12
27 -6 0 -4 6 4 14 15 16 11 76 -5 76 -6 0 -7 7 -4 16 4 9 2 13 -5 8 -8 -5 -10
2 -6 22 19 91 19 93 3 109 -18 18 -21 41 -7 47 5 2 5 24 0 53 -15 82 -16 232
-1 283 7 26 13 60 12 75 0 28 6 47 17 47 3 0 2 -7 -1 -16z m937 -38 c20 -15
23 -30 5 -21 -7 4 -4 -1 6 -9 24 -19 36 -20 36 -3 0 6 5 4 11 -6 8 -13 7 -22
-3 -34 -9 -12 -10 -15 0 -9 7 4 15 1 18 -9 5 -13 9 -13 23 -3 12 10 12 8 -2
-9 -18 -20 -17 -21 8 -41 16 -13 21 -22 13 -24 -9 -3 -8 -9 5 -22 20 -20 22
-36 5 -37 -7 0 -4 -4 7 -9 17 -7 17 -9 3 -9 -19 -1 -25 -35 -8 -46 6 -3 10
-21 10 -38 0 -26 2 -29 11 -17 9 12 9 11 4 -5 -17 -45 -16 -144 0 -169 15 -23
13 -52 -3 -42 -4 2 -7 -18 -6 -45 0 -27 -3 -49 -7 -49 -5 0 -4 -12 1 -26 14
-35 12 -42 -5 -20 -8 11 -15 17 -15 13 0 -15 -2 -23 -12 -40 -8 -16 -7 -17 11
-7 24 12 26 8 9 -23 -7 -12 -11 -35 -9 -51 2 -16 -3 -32 -11 -37 -10 -7 -10
-9 0 -9 8 0 5 -8 -8 -22 -13 -14 -17 -25 -10 -32 6 -6 6 -14 -1 -22 -6 -8 -11
-29 -11 -49 0 -19 -4 -37 -9 -40 -4 -3 -6 -12 -3 -19 5 -14 -23 -43 -32 -33
-3 3 0 15 6 27 6 12 9 28 6 36 -3 8 -1 14 5 14 6 0 8 10 4 23 -5 16 -4 18 3 8
11 -16 8 82 -3 99 -4 6 -1 17 5 25 7 8 10 22 6 30 -3 8 0 15 7 15 8 0 6 4 -3
10 -9 6 -10 10 -3 10 8 0 9 9 2 32 -9 34 -4 53 7 24 5 -14 9 -15 15 -5 4 7 4
18 0 24 -5 5 -12 25 -16 44 -5 26 -4 32 5 26 10 -6 12 -1 8 19 -3 14 -1 26 3
26 5 0 4 12 -2 27 -5 14 -7 33 -4 40 3 8 0 24 -6 35 -6 12 -7 18 -1 14 5 -3
12 1 15 9 4 10 1 12 -10 8 -10 -4 -14 -2 -10 4 4 6 2 25 -3 42 -8 28 -7 32 7
27 14 -6 14 -4 -1 16 -32 45 -36 57 -26 63 6 4 9 1 8 -6 -4 -18 33 -24 43 -7
12 19 11 28 -3 25 -6 -1 -14 6 -16 15 -2 13 1 16 15 12 10 -3 6 2 -9 11 -16 8
-28 21 -29 28 -1 7 -2 21 -3 32 0 11 -11 21 -24 25 -13 3 -23 10 -23 15 1 6
-3 10 -9 9 -31 -3 -32 -4 -20 -19 7 -8 9 -15 4 -15 -4 0 1 -7 12 -16 10 -8 14
-13 9 -10 -6 2 -17 1 -25 -5 -12 -7 -11 -9 5 -9 13 0 16 -3 8 -8 -8 -5 -8 -11
1 -24 7 -10 16 -15 20 -11 4 4 4 0 1 -9 -4 -9 -12 -15 -18 -14 -35 6 -55 19
-60 36 -4 14 -11 18 -24 14 -13 -4 -13 -2 3 8 19 11 20 15 8 26 -19 18 -18 34
7 61 15 16 24 20 32 12 14 -14 27 -14 27 0 0 5 -4 7 -10 4 -10 -6 -14 6 -10
39 1 10 -3 15 -8 12 -5 -3 -16 2 -23 11 -10 12 -10 14 -1 9 7 -4 12 -1 12 8 0
10 6 13 18 9 11 -3 9 0 -6 11 -12 10 -20 22 -17 27 9 13 37 11 58 -5z m112
-134 c-3 -3 -11 0 -18 7 -9 10 -8 11 6 5 10 -3 15 -9 12 -12z m-88 -108 c-3
-3 -12 -4 -19 -1 -8 3 -5 6 6 6 11 1 17 -2 13 -5z m-86 -26 c22 -27 24 -44 7
-51 -9 -3 -6 -10 10 -22 22 -16 32 -53 10 -39 -7 4 -8 3 -4 -5 4 -6 0 -23 -9
-37 -9 -15 -15 -34 -12 -45 3 -10 0 -20 -7 -23 -6 -2 -4 -5 4 -5 9 -1 16 -9
16 -18 1 -10 4 -30 9 -45 5 -19 3 -28 -5 -28 -6 0 -9 4 -5 9 3 5 1 13 -5 16
-6 4 -9 3 -8 -2 1 -4 -1 -23 -5 -41 -4 -22 -11 -31 -18 -26 -8 5 -9 3 -3 -7
12 -20 13 -89 1 -129 -5 -19 -12 -42 -14 -50 -10 -34 -33 24 -33 82 0 50 2 57
18 52 13 -4 14 -3 4 4 -8 5 -13 18 -12 28 1 11 1 21 0 24 -6 19 -7 60 -1 60 5
0 7 17 6 38 -1 20 3 43 9 51 8 11 8 13 0 8 -17 -10 -23 14 -11 43 5 14 9 33 8
43 -1 9 3 17 9 17 6 0 13 8 17 18 3 9 13 26 22 36 9 11 10 16 3 12 -7 -4 -20
-5 -29 -2 -12 5 -13 9 -3 21 6 8 9 19 5 25 -12 19 7 10 26 -12z m-615 -235
c-10 -10 -19 5 -10 18 6 11 8 11 12 0 2 -7 1 -15 -2 -18z m-9 -50 c-3 -10 -5
-4 -5 12 0 17 2 24 5 18 2 -7 2 -21 0 -30z m-140 -75 c-3 -8 -6 -5 -6 6 -1 11
2 17 5 13 3 -3 4 -12 1 -19z m40 -30 c-3 -8 -6 -5 -6 6 -1 11 2 17 5 13 3 -3
4 -12 1 -19z m53 -113 c0 -8 -7 -15 -16 -15 -14 0 -14 3 -4 15 7 8 14 15 16
15 2 0 4 -7 4 -15z m1143 -5 c3 -11 1 -18 -4 -14 -5 3 -9 12 -9 20 0 20 7 17
13 -6z m-1206 -72 c-3 -8 -6 -5 -6 6 -1 11 2 17 5 13 3 -3 4 -12 1 -19z m708
2 c7 -21 -3 -50 -17 -50 -7 0 -7 -4 0 -12 12 -15 4 -70 -9 -63 -4 3 -11 -11
-15 -30 -10 -53 -17 -35 -19 45 -1 61 1 70 14 65 12 -5 13 -3 4 6 -8 8 -8 18
-1 34 12 26 36 29 43 5z m-110 -199 c3 -5 0 -13 -6 -17 -7 -4 -9 -3 -5 4 3 5
0 13 -6 15 -9 4 -10 6 -1 6 6 1 14 -3 18 -8z m238 -56 c-3 -9 -8 -14 -10 -11
-3 3 -2 9 2 15 9 16 15 13 8 -4z m300 0 c-3 -9 -8 -14 -10 -11 -3 3 -2 9 2 15
9 16 15 13 8 -4z m-569 -47 c6 -4 1 -6 -10 -6 -16 2 -20 7 -16 22 4 15 7 17
10 6 3 -8 10 -18 16 -22z m276 9 c0 -2 -14 -13 -31 -26 l-31 -23 17 26 c10 14
24 26 31 26 8 0 14 -1 14 -3z m-653 -39 c-3 -7 -5 -2 -5 12 0 14 2 19 5 13 2
-7 2 -19 0 -25z m375 -10 c-4 -15 -22 -27 -22 -14 0 2 -3 11 -6 20 -4 10 0 14
14 13 13 -1 18 -7 14 -19z m-82 -3 c0 -8 -4 -15 -10 -15 -5 0 -7 7 -4 15 4 8
8 15 10 15 2 0 4 -7 4 -15z m-273 -27 c-3 -8 -6 -5 -6 6 -1 11 2 17 5 13 3 -3
4 -12 1 -19z m586 -23 c-3 -9 -8 -14 -10 -11 -3 3 -2 9 2 15 9 16 15 13 8 -4z
m-233 -40 c0 -5 -5 -3 -10 5 -5 8 -10 20 -10 25 0 6 5 3 10 -5 5 -8 10 -19 10
-25z m17 -47 c-3 -8 -6 -5 -6 6 -1 11 2 17 5 13 3 -3 4 -12 1 -19z m199 -17
c0 -12 -6 -17 -18 -13 -18 4 -18 5 -1 18 10 7 18 14 18 14 1 0 1 -8 1 -19z
m-7 -49 c0 -11 -2 -12 -6 -4 -2 6 -9 10 -14 7 -5 -4 -6 1 -3 9 8 20 24 11 23
-12z m-312 -64 c-3 -8 -6 -5 -6 6 -1 11 2 17 5 13 3 -3 4 -12 1 -19z m0 -110
c-3 -8 -6 -5 -6 6 -1 11 2 17 5 13 3 -3 4 -12 1 -19z"/>
<path d="M4946 1835 c-11 -8 -14 -15 -8 -15 20 0 26 4 28 18 3 15 3 15 -20 -3z"/>
<path d="M4965 1739 c-9 -14 -2 -20 14 -10 8 6 9 11 3 15 -6 3 -14 1 -17 -5z"/>
<path d="M4995 1642 c-13 -9 -14 -61 0 -56 5 2 10 18 10 34 0 17 0 30 0 30 0
0 -4 -4 -10 -8z"/>
<path d="M5013 1544 c3 -4 2 -14 -3 -23 -7 -13 -4 -17 13 -18 14 -2 17 1 9 6
-7 4 -10 15 -6 24 4 11 1 17 -7 17 -7 0 -9 -3 -6 -6z"/>
<path d="M5005 1480 c3 -5 8 -10 11 -10 2 0 4 5 4 10 0 6 -5 10 -11 10 -5 0
-7 -4 -4 -10z"/>
<path d="M5020 1430 c0 -5 5 -10 11 -10 5 0 7 5 4 10 -3 6 -8 10 -11 10 -2 0
-4 -4 -4 -10z"/>
<path d="M4870 1399 c0 -5 5 -7 10 -4 6 3 10 8 10 11 0 2 -4 4 -10 4 -5 0 -10
-5 -10 -11z"/>
<path d="M4993 1396 c-3 -5 -1 -6 5 -2 16 10 25 -13 12 -29 -15 -18 -3 -20 13
-2 21 22 20 46 -3 44 -12 -1 -24 -6 -27 -11z"/>
<path d="M4950 1386 c0 -2 9 -6 20 -9 11 -3 18 -1 14 4 -5 9 -34 13 -34 5z"/>
<path d="M5070 1356 c0 -2 8 -10 18 -17 15 -13 16 -12 3 4 -13 16 -21 21 -21
13z"/>
<path d="M5120 1310 c13 -8 13 -12 1 -32 -14 -23 -14 -23 7 -5 23 21 19 47 -7
47 -14 0 -14 -2 -1 -10z"/>
<path d="M4990 1272 c0 -4 9 -8 20 -8 11 0 20 4 20 8 0 4 -9 8 -20 8 -11 0
-20 -4 -20 -8z"/>
<path d="M5040 1276 c0 -2 7 -9 15 -16 9 -7 15 -8 15 -2 0 5 -7 12 -15 16 -8
3 -15 4 -15 2z"/>
<path d="M4950 1246 c0 -8 4 -17 8 -20 4 -2 8 4 8 15 0 10 -4 19 -8 19 -4 0
-8 -6 -8 -14z"/>
<path d="M5160 1201 c0 -5 -3 -16 -6 -24 -3 -8 1 -17 9 -20 10 -4 12 3 9 24
-4 27 -12 40 -12 20z"/>
<path d="M5105 1170 c-16 -7 -17 -9 -3 -9 9 -1 20 4 23 9 7 11 7 11 -20 0z"/>
<path d="M4971 1154 c0 -11 3 -14 6 -6 3 7 2 16 -1 19 -3 4 -6 -2 -5 -13z"/>
<path d="M5020 1148 c0 -9 -2 -22 -3 -30 -2 -7 -2 -10 0 -5 8 14 22 7 17 -8
-8 -19 10 -20 25 -1 8 10 9 16 1 21 -5 3 -10 3 -10 -2 -1 -4 -7 3 -15 17 -10
18 -14 20 -15 8z"/>
<path d="M5107 1143 c-4 -6 3 -19 16 -29 12 -11 17 -12 11 -4 -6 8 -13 22 -16
30 -3 9 -7 10 -11 3z"/>
<path d="M4900 1119 c0 -5 5 -7 10 -4 6 3 10 8 10 11 0 2 -4 4 -10 4 -5 0 -10
-5 -10 -11z"/>
<path d="M5042 1065 c-2 -27 13 -51 22 -36 4 6 3 11 -3 11 -5 0 -12 10 -14 23
-4 19 -4 19 -5 2z"/>
<path d="M5140 1045 c0 -8 -4 -15 -10 -15 -5 0 -10 -7 -10 -15 0 -8 6 -15 13
-15 9 0 9 -2 -1 -9 -11 -7 -11 -9 2 -14 13 -5 16 2 16 38 0 25 -2 45 -5 45 -3
0 -5 -7 -5 -15z"/>
<path d="M4958 1023 c5 -21 7 -23 10 -9 2 10 0 22 -6 28 -6 6 -7 0 -4 -19z"/>
<path d="M5002 1020 c0 -14 2 -19 5 -12 2 6 2 18 0 25 -3 6 -5 1 -5 -13z"/>
<path d="M4960 979 c0 -5 5 -7 10 -4 6 3 10 8 10 11 0 2 -4 4 -10 4 -5 0 -10
-5 -10 -11z"/>
<path d="M5060 930 c0 -16 2 -30 4 -30 2 0 6 14 8 30 3 17 1 30 -4 30 -4 0 -8
-13 -8 -30z"/>
<path d="M4980 856 c0 -8 4 -17 9 -20 5 -4 7 3 4 14 -6 23 -13 26 -13 6z"/>
<path d="M4940 851 c0 -6 4 -13 10 -16 6 -3 7 1 4 9 -7 18 -14 21 -14 7z"/>
<path d="M5082 820 c0 -14 2 -19 5 -12 2 6 2 18 0 25 -3 6 -5 1 -5 -13z"/>
<path d="M5240 821 c0 -7 -4 -9 -10 -6 -6 4 -7 -1 -3 -11 6 -15 7 -15 15 1 6
9 7 19 4 22 -3 4 -6 1 -6 -6z"/>
<path d="M5023 773 c-17 -6 -17 -20 0 -20 8 0 14 6 14 14 0 7 -1 13 -1 12 -1
0 -7 -3 -13 -6z"/>
<path d="M5201 694 c0 -11 3 -14 6 -6 3 7 2 16 -1 19 -3 4 -6 -2 -5 -13z"/>
<path d="M4981 674 c0 -11 3 -14 6 -6 3 7 2 16 -1 19 -3 4 -6 -2 -5 -13z"/>
<path d="M5040 651 c0 -6 4 -13 10 -16 6 -3 7 1 4 9 -7 18 -14 21 -14 7z"/>
<path d="M5140 650 c0 -5 5 -10 11 -10 5 0 7 5 4 10 -3 6 -8 10 -11 10 -2 0
-4 -4 -4 -10z"/>
<path d="M5116 616 c3 -8 12 -17 20 -20 11 -4 12 -2 1 14 -14 23 -29 27 -21 6z"/>
<path d="M4986 583 c9 -52 14 -54 14 -5 0 23 -5 42 -10 42 -7 0 -8 -14 -4 -37z"/>
<path d="M5192 590 c0 -14 2 -19 5 -12 2 6 2 18 0 25 -3 6 -5 1 -5 -13z"/>
<path d="M4941 574 c0 -11 3 -14 6 -6 3 7 2 16 -1 19 -3 4 -6 -2 -5 -13z"/>
<path d="M5123 545 c0 -27 2 -38 4 -22 2 15 2 37 0 50 -2 12 -4 0 -4 -28z"/>
<path d="M5211 544 c0 -11 3 -14 6 -6 3 7 2 16 -1 19 -3 4 -6 -2 -5 -13z"/>
<path d="M5147 533 c-4 -3 -7 -11 -7 -17 0 -6 5 -5 12 2 6 6 9 14 7 17 -3 3
-9 2 -12 -2z"/>
<path d="M5121 466 c0 -13 3 -16 6 -7 5 11 7 11 14 0 7 -11 9 -9 9 7 0 12 -6
21 -15 21 -9 0 -15 -9 -14 -21z"/>
<path d="M5103 445 c0 -22 2 -30 4 -17 2 12 2 30 0 40 -3 9 -5 -1 -4 -23z"/>
<path d="M4600 1600 c0 -6 7 -10 15 -10 8 0 15 2 15 4 0 2 -7 6 -15 10 -8 3
-15 1 -15 -4z"/>
<path d="M4740 671 c0 -11 4 -22 9 -25 4 -3 6 6 3 19 -5 30 -12 33 -12 6z"/>
<path d="M4750 560 c0 -11 4 -20 9 -20 5 0 7 9 4 20 -3 11 -7 20 -9 20 -2 0
-4 -9 -4 -20z"/>
<path d="M4781 524 c0 -11 3 -14 6 -6 3 7 2 16 -1 19 -3 4 -6 -2 -5 -13z"/>
<path d="M5600 1312 c0 -5 7 -13 16 -16 10 -4 14 -1 12 6 -5 15 -28 23 -28 10z"/>
<path d="M4798 2152 c-16 -2 -28 -6 -28 -10 1 -21 64 -72 87 -72 7 0 13 7 13
16 0 13 -3 14 -14 5 -11 -9 -15 -8 -20 5 -4 10 0 21 9 28 14 10 13 12 -2 21
-10 6 -30 9 -45 7z"/>
<path d="M5241 2054 c13 -16 29 -19 29 -5 0 5 -9 11 -21 14 -16 4 -18 3 -8 -9z"/>
<path d="M4390 1950 c0 -12 5 -17 13 -14 9 3 13 -4 13 -23 -1 -18 4 -27 12
-25 9 2 12 -10 11 -44 -2 -39 1 -50 22 -66 13 -11 25 -24 25 -29 1 -5 2 -17 3
-26 4 -36 20 25 27 101 7 75 7 75 -20 88 -19 8 -26 18 -23 29 5 20 -11 29 -54
29 -22 0 -29 -5 -29 -20z"/>
<path d="M6299 1853 c-3 -25 0 -44 6 -47 7 -2 9 10 7 33 -5 56 -9 60 -13 14z"/>
<path d="M2641 1854 c0 -11 3 -14 6 -6 3 7 2 16 -1 19 -3 4 -6 -2 -5 -13z"/>
<path d="M3495 1810 c-15 -17 -16 -20 -3 -20 25 0 38 -24 45 -79 4 -40 11 -54
32 -68 14 -10 29 -18 32 -18 4 0 16 -11 27 -25 17 -21 23 -23 34 -12 11 11 10
12 -3 7 -21 -8 -21 32 0 44 11 7 9 10 -8 16 -12 3 -19 10 -16 15 9 14 -27 79
-47 86 -20 6 -51 58 -41 68 4 3 -3 6 -14 6 -11 0 -28 -9 -38 -20z"/>
<path d="M6289 1784 c0 -10 -2 -29 -5 -41 -2 -13 -5 -32 -7 -44 -2 -11 -10
-25 -18 -30 -10 -6 -10 -9 -1 -9 6 0 12 -4 12 -10 0 -5 -6 -7 -13 -4 -8 3 -13
-5 -15 -21 -1 -15 2 -24 8 -20 6 3 10 1 10 -4 0 -6 -6 -11 -14 -11 -14 0 -27
-62 -31 -145 -1 -22 -5 -48 -9 -57 -4 -9 -5 -22 -1 -28 3 -5 -1 -10 -10 -10
-9 0 -14 -4 -11 -9 4 -5 1 -11 -5 -13 -6 -2 -12 -16 -12 -31 -1 -15 -4 -27 -7
-27 -3 0 -5 -27 -5 -61 0 -33 -4 -63 -9 -66 -5 -4 -6 0 -1 8 6 11 5 11 -4 3
-7 -7 -14 -30 -14 -52 -1 -22 -5 -38 -9 -36 -4 2 -14 -30 -24 -72 -10 -48 -19
-71 -25 -63 -8 13 -13 0 -23 -66 -3 -16 -8 -40 -12 -52 -4 -15 -2 -23 6 -23 7
0 6 -5 -4 -15 -16 -17 -30 -20 -21 -5 3 6 -1 7 -9 4 -21 -8 -20 -13 7 -24 18
-7 19 -9 4 -9 -16 -1 -17 -6 -12 -32 5 -23 4 -29 -4 -24 -8 5 -10 -1 -5 -21 4
-16 3 -25 -3 -21 -5 3 -8 -6 -5 -23 3 -18 -2 -35 -12 -45 -17 -17 -22 -40 -7
-31 13 8 0 -37 -12 -46 -6 -3 -11 -34 -12 -68 -2 -34 -6 -65 -11 -69 -5 -3 -9
-13 -9 -21 0 -8 -6 -14 -14 -12 -10 2 -12 -6 -9 -28 4 -30 -6 -42 -15 -17 -3
6 -3 -5 0 -25 3 -22 1 -44 -6 -51 -6 -8 -9 -16 -7 -18 2 -2 6 -17 10 -32 4
-19 3 -26 -4 -22 -6 3 -10 -3 -10 -15 0 -17 -4 -21 -17 -15 -15 5 -16 4 -6 -6
11 -10 8 -16 -15 -26 -15 -7 -19 -11 -9 -8 13 3 17 -2 17 -20 0 -14 -6 -25
-12 -25 -7 0 -5 -5 4 -11 26 -15 144 -7 140 9 -11 54 -12 86 -3 72 9 -13 11
-12 11 3 0 10 4 16 9 13 5 -3 9 0 8 7 -1 46 4 67 19 67 14 0 14 3 4 15 -11 13
-7 19 11 17 4 -1 3 14 -1 32 -4 19 -4 40 1 47 5 8 9 10 9 4 1 -10 23 23 27 40
8 35 22 68 23 55 2 -18 25 31 29 60 0 6 10 10 21 10 11 0 24 8 27 17 6 16 56
73 58 65 1 -8 65 21 65 30 0 5 4 7 9 4 5 -3 12 1 15 9 3 8 9 14 13 13 4 -1 22
5 39 15 18 9 47 19 65 22 18 3 35 8 38 10 2 3 10 0 16 -5 10 -8 13 12 13 87 1
69 -1 91 -8 76 -11 -26 -30 -31 -30 -8 0 8 5 15 10 15 6 0 10 8 9 18 0 10 -3
12 -6 5 -2 -7 -14 -13 -26 -12 -17 0 -19 2 -6 7 9 4 15 15 14 24 -2 10 2 15
11 11 22 -8 37 7 23 23 -9 11 -9 18 -1 26 7 7 12 31 12 55 0 34 -3 41 -15 37
-8 -4 -15 -14 -15 -23 0 -14 -2 -14 -10 -1 -9 13 -10 13 -11 0 -1 -8 -1 -19 0
-23 1 -5 -3 -6 -7 -3 -12 7 -45 -22 -61 -52 -7 -12 -16 -20 -22 -17 -5 4 -16
-1 -25 -9 -17 -18 -27 -73 -13 -81 5 -4 9 7 9 24 0 16 5 31 12 33 12 4 49 -26
47 -38 0 -4 5 -11 13 -15 10 -7 10 -9 0 -9 -8 0 -10 -9 -6 -27 4 -19 3 -24 -4
-15 -7 11 -11 10 -16 -5 -7 -17 -8 -17 -17 0 -14 25 -39 21 -39 -6 0 -16 -9
-28 -27 -38 -45 -22 -167 -102 -175 -113 -5 -7 -8 -7 -8 2 0 7 -4 10 -10 7 -5
-3 -10 -1 -10 4 0 6 7 11 15 11 18 0 10 56 -11 81 -17 19 -18 39 -3 39 5 0 8
4 5 8 -3 4 11 21 30 37 19 16 34 34 34 41 0 6 15 23 33 37 17 14 47 39 65 56
18 17 37 31 42 31 4 0 22 14 40 30 18 17 39 30 48 30 8 0 12 3 9 6 -9 9 45 55
58 51 5 -2 18 6 27 19 22 27 26 174 6 174 -9 0 -10 3 -2 8 14 9 17 92 3 92 -5
0 -7 5 -4 10 3 6 0 10 -7 10 -8 0 -6 5 5 11 19 11 23 29 6 29 -5 0 -7 -4 -4
-10 3 -5 2 -10 -4 -10 -5 0 -9 9 -8 19 0 11 4 18 8 15 4 -2 5 5 2 17 -5 19 -7
20 -15 4 -9 -15 -13 -13 -40 17 -16 18 -26 26 -22 18 7 -13 6 -13 -11 0 -16
13 -16 15 -2 18 10 2 17 8 17 13 0 6 -8 5 -20 -1 -11 -6 -18 -15 -15 -21 4 -5
0 -9 -7 -9 -9 0 -9 -3 2 -10 12 -7 13 -13 3 -28 -6 -11 -8 -24 -3 -32 10 -16
-43 -90 -64 -90 -6 0 -13 -15 -15 -32 -1 -18 -4 -44 -6 -58 -2 -14 -4 -33 -4
-43 -1 -10 -5 -15 -11 -12 -5 3 -10 -2 -10 -12 0 -10 -9 -25 -20 -33 -11 -8
-20 -23 -20 -33 0 -10 -4 -15 -10 -12 -5 3 -10 -3 -10 -13 0 -11 -7 -23 -16
-26 -13 -5 -15 -2 -9 16 4 13 9 37 12 53 3 17 9 35 13 40 4 6 6 20 4 33 -2 13
1 33 8 45 6 12 13 42 13 66 1 25 7 47 13 49 7 2 12 8 12 13 0 6 -4 8 -9 5 -16
-10 -1 59 20 87 14 20 21 46 22 83 1 30 5 54 10 54 4 0 6 24 5 54 -2 30 0 53
3 50 4 -2 5 20 2 48 -4 53 -12 77 -14 42z m-106 -779 c-6 -18 -34 -20 -30 -2
3 15 19 27 29 21 4 -3 5 -11 1 -19z m-9 -50 c-4 -8 -11 -12 -16 -9 -6 4 -5 10
3 15 19 12 19 11 13 -6z m243 -117 c-3 -7 -5 -2 -5 12 0 14 2 19 5 13 2 -7 2
-19 0 -25z"/>
<path d="M2384 1756 c-10 -8 -17 -17 -14 -19 3 -3 14 1 24 9 11 7 17 16 15 19
-3 3 -14 -2 -25 -9z"/>
<path d="M3400 1670 c0 -5 5 -10 11 -10 5 0 7 5 4 10 -3 6 -8 10 -11 10 -2 0
-4 -4 -4 -10z"/>
<path d="M5745 1640 c3 -5 11 -10 16 -10 6 0 7 5 4 10 -3 6 -11 10 -16 10 -6
0 -7 -4 -4 -10z"/>
<path d="M6411 1593 c6 -7 7 -13 2 -13 -5 0 -10 -11 -11 -25 -2 -23 0 -24 18
-13 11 7 16 14 12 16 -5 1 -7 13 -5 26 3 16 0 23 -11 23 -12 0 -13 -4 -5 -14z"/>
<path d="M6381 1564 c0 -11 3 -14 6 -6 3 7 2 16 -1 19 -3 4 -6 -2 -5 -13z"/>
<path d="M6421 1524 c0 -11 3 -14 6 -6 3 7 2 16 -1 19 -3 4 -6 -2 -5 -13z"/>
<path d="M3442 1170 c0 -14 2 -19 5 -12 2 6 2 18 0 25 -3 6 -5 1 -5 -13z"/>
<path d="M1596 1095 c-8 -22 3 -40 16 -27 7 7 7 16 1 27 -9 16 -10 16 -17 0z"/>
<path d="M3462 1055 c0 -16 2 -22 5 -12 2 9 2 23 0 30 -3 6 -5 -1 -5 -18z"/>
<path d="M3461 1014 c0 -5 4 -18 8 -28 6 -17 8 -17 14 -3 3 8 -1 21 -9 27 -8
7 -14 9 -13 4z"/>
<path d="M6071 974 c0 -11 3 -14 6 -6 3 7 2 16 -1 19 -3 4 -6 -2 -5 -13z"/>
<path d="M1440 790 c0 -5 4 -10 9 -10 6 0 13 5 16 10 3 6 -1 10 -9 10 -9 0
-16 -4 -16 -10z"/>
<path d="M1298 342 c-20 -4 -24 -17 -8 -27 6 -3 10 -1 10 5 0 6 4 9 9 6 5 -3
14 0 20 7 11 14 4 17 -31 9z"/>
<path d="M1245 300 c-3 -5 -1 -10 4 -10 6 0 11 5 11 10 0 6 -2 10 -4 10 -3 0
-8 -4 -11 -10z"/>
<path d="M6121 214 c0 -11 3 -14 6 -6 3 7 2 16 -1 19 -3 4 -6 -2 -5 -13z"/>
<path d="M6283 190 c3 -11 0 -20 -6 -20 -8 0 -7 -3 1 -9 11 -6 10 -10 -5 -16
-10 -5 -21 -8 -25 -7 -4 1 -16 -10 -26 -23 -14 -17 -30 -25 -51 -25 -27 0 -32
-4 -38 -31 -4 -22 -8 -27 -14 -17 -7 10 -9 10 -10 -2 0 -10 -3 -8 -9 5 -7 17
-9 17 -9 3 -1 -10 -1 -21 0 -25 0 -4 -8 -10 -18 -14 -10 -4 23 -8 72 -8 50 1
84 3 78 6 -7 2 -13 9 -13 14 0 6 5 7 10 4 6 -3 10 -1 10 4 0 6 -4 11 -10 11
-5 0 -7 7 -4 15 4 8 9 13 13 11 15 -9 43 24 38 44 -4 17 -3 19 9 9 11 -9 14
-9 14 1 0 9 4 10 13 2 10 -9 13 -4 11 21 -2 39 -13 67 -26 67 -6 0 -8 -9 -5
-20z m-36 -82 c-3 -8 -6 -5 -6 6 -1 11 2 17 5 13 3 -3 4 -12 1 -19z"/>
<path d="M6005 30 c-4 -6 3 -10 14 -10 25 0 27 6 6 13 -8 4 -17 2 -20 -3z"/>
</g>
</svg>
